<?xml version="1.0" encoding="UTF-8" standalone="no"?>
<!DOCTYPE svg PUBLIC "-//W3C//DTD SVG 1.1//EN" "http://www.w3.org/Graphics/SVG/1.1/DTD/svg11.dtd">
<svg width="100%" height="100%" viewBox="0 0 1920 2000" version="1.1" xmlns="http://www.w3.org/2000/svg"
    xmlns:xlink="http://www.w3.org/1999/xlink" xml:space="preserve" xmlns:serif="http://www.serif.com/"
    style="fill-rule:evenodd;clip-rule:evenodd;stroke-linejoin:round;stroke-miterlimit:2;">
    <g transform="matrix(0.543963,0,0,0.612819,1034.39,1583.5)">
        <clipPath id="_clip1">
            <rect x="687.546" y="505.207" width="435.206" height="174.444" />
        </clipPath>
        <g clip-path="url(#_clip1)">
            <path
                d="M898.611,518.901L1097.84,621.002L1097.84,825.202L898.611,927.302L699.383,825.202L699.383,621.002L898.611,518.901Z"
                style="fill:rgb(59,59,59);" />
        </g>
    </g>
    <g transform="matrix(0.543963,0,0,0.612819,373.418,1515.63)">
        <clipPath id="_clip2">
            <rect x="687.45" y="511.384" width="425.475" height="279.011" />
        </clipPath>
        <g clip-path="url(#_clip2)">
            <path
                d="M898.611,518.901L1097.84,621.002L1097.84,825.202L898.611,927.302L699.383,825.202L699.383,621.002L898.611,518.901Z"
                style="fill:rgb(59,59,59);" />
        </g>
    </g>
    <g transform="matrix(0.543963,0,0,0.612819,1146.32,1389.62)">
        <path
            d="M898.611,518.901L1097.84,621.002L1097.84,825.202L898.611,927.302L699.383,825.202L699.383,621.002L898.611,518.901Z"
            style="fill:rgb(59,59,59);" />
    </g>
    <g transform="matrix(0.543963,0,0,0.612819,922.46,1389.62)">
        <path
            d="M898.611,518.901L1097.84,621.002L1097.84,825.202L898.611,927.302L699.383,825.202L699.383,621.002L898.611,518.901Z"
            style="fill:rgb(59,59,59);" />
    </g>
    <g transform="matrix(0.543963,0,0,0.612819,250.887,1327.59)">
        <path
            d="M898.611,518.901L1097.84,621.002L1097.84,825.202L898.611,927.302L699.383,825.202L699.383,621.002L898.611,518.901Z"
            style="fill:rgb(59,59,59);" />
    </g>
    <g transform="matrix(0.543963,0,0,0.612819,27.029,1327.59)">
        <path
            d="M898.611,518.901L1097.84,621.002L1097.84,825.202L898.611,927.302L699.383,825.202L699.383,621.002L898.611,518.901Z"
            style="fill:rgb(59,59,59);" />
    </g>
    <g transform="matrix(0.543963,0,0,0.612819,-421.063,1329.12)">
        <path
            d="M898.611,518.901L1097.84,621.002L1097.84,825.202L898.611,927.302L699.383,825.202L699.383,621.002L898.611,518.901Z"
            style="fill:rgb(59,59,59);" />
    </g>
    <g transform="matrix(0.543963,0,0,0.612819,362.816,1133.72)">
        <path
            d="M898.611,518.901L1097.84,621.002L1097.84,825.202L898.611,927.302L699.383,825.202L699.383,621.002L898.611,518.901Z"
            style="fill:rgb(59,59,59);" />
    </g>
    <g transform="matrix(0.543963,0,0,0.612819,138.958,1133.72)">
        <path
            d="M898.611,518.901L1097.84,621.002L1097.84,825.202L898.611,927.302L699.383,825.202L699.383,621.002L898.611,518.901Z"
            style="fill:rgb(59,59,59);" />
    </g>
    <g transform="matrix(0.543963,0,0,0.612819,-308.99,1134.72)">
        <path
            d="M898.611,518.901L1097.84,621.002L1097.84,825.202L898.611,927.302L699.383,825.202L699.383,621.002L898.611,518.901Z"
            style="fill:rgb(59,59,59);" />
    </g>
    <g transform="matrix(0.543963,0,0,0.612819,-532.992,1136.19)">
        <path
            d="M898.611,518.901L1097.84,621.002L1097.84,825.202L898.611,927.302L699.383,825.202L699.383,621.002L898.611,518.901Z"
            style="fill:rgb(59,59,59);" />
    </g>
    <g transform="matrix(0.543963,0,0,0.612819,922.461,940.103)">
        <path
            d="M898.611,518.901L1097.84,621.002L1097.84,825.202L898.611,927.302L699.383,825.202L699.383,621.002L898.611,518.901Z"
            style="fill:rgb(59,59,59);" />
    </g>
    <g transform="matrix(0.543963,0,0,0.612819,698.603,940.103)">
        <path
            d="M898.611,518.901L1097.84,621.002L1097.84,825.202L898.611,927.302L699.383,825.202L699.383,621.002L898.611,518.901Z"
            style="fill:rgb(59,59,59);" />
    </g>
    <g transform="matrix(0.543963,0,0,0.612819,474.745,940.103)">
        <path
            d="M898.611,518.901L1097.84,621.002L1097.84,825.202L898.611,927.302L699.383,825.202L699.383,621.002L898.611,518.901Z"
            style="fill:rgb(59,59,59);" />
    </g>
    <g transform="matrix(0.543963,0,0,0.612819,250.887,940.103)">
        <path
            d="M898.611,518.901L1097.84,621.002L1097.84,825.202L898.611,927.302L699.383,825.202L699.383,621.002L898.611,518.901Z"
            style="fill:rgb(59,59,59);" />
    </g>
    <g transform="matrix(0.543963,0,0,0.612819,27.029,940.103)">
        <path
            d="M898.611,518.901L1097.84,621.002L1097.84,825.202L898.611,927.302L699.383,825.202L699.383,621.002L898.611,518.901Z"
            style="fill:rgb(59,59,59);" />
    </g>
    <g transform="matrix(0.543963,0,0,0.612819,-197.061,940.103)">
        <path
            d="M898.611,518.901L1097.84,621.002L1097.84,825.202L898.611,927.302L699.383,825.202L699.383,621.002L898.611,518.901Z"
            style="fill:rgb(59,59,59);" />
    </g>
    <g transform="matrix(0.543963,0,0,0.612819,1258.25,746.616)">
        <path
            d="M898.611,518.901L1097.84,621.002L1097.84,825.202L898.611,927.302L699.383,825.202L699.383,621.002L898.611,518.901Z"
            style="fill:rgb(59,59,59);" />
    </g>
    <g transform="matrix(0.543963,0,0,0.612819,1034.39,746.616)">
        <path
            d="M898.611,518.901L1097.84,621.002L1097.84,825.202L898.611,927.302L699.383,825.202L699.383,621.002L898.611,518.901Z"
            style="fill:rgb(59,59,59);" />
    </g>
    <g transform="matrix(0.543963,0,0,0.612819,810.532,746.616)">
        <path
            d="M898.611,518.901L1097.84,621.002L1097.84,825.202L898.611,927.302L699.383,825.202L699.383,621.002L898.611,518.901Z"
            style="fill:rgb(59,59,59);" />
    </g>
    <g transform="matrix(0.543963,0,0,0.612819,362.816,746.616)">
        <path
            d="M898.611,518.901L1097.84,621.002L1097.84,825.202L898.611,927.302L699.383,825.202L699.383,621.002L898.611,518.901Z"
            style="fill:rgb(59,59,59);" />
    </g>
    <g transform="matrix(0.543963,0,0,0.612819,1370.18,553.462)">
        <clipPath id="_clip3">
            <rect x="669.769" y="518.901" width="341.003" height="408.401" />
        </clipPath>
        <g clip-path="url(#_clip3)">
            <path
                d="M898.611,518.901L1097.84,621.002L1097.84,825.202L898.611,927.302L699.383,825.202L699.383,621.002L898.611,518.901Z"
                style="fill:rgb(59,59,59);" />
        </g>
    </g>
    <g transform="matrix(0.543963,0,0,0.612819,698.603,552.913)">
        <path
            d="M898.611,518.901L1097.84,621.002L1097.84,825.202L898.611,927.302L699.383,825.202L699.383,621.002L898.611,518.901Z"
            style="fill:rgb(59,59,59);" />
    </g>
    <g transform="matrix(0.543963,0,0,0.612819,474.745,552.913)">
        <path
            d="M898.611,518.901L1097.84,621.002L1097.84,825.202L898.611,927.302L699.383,825.202L699.383,621.002L898.611,518.901Z"
            style="fill:rgb(59,59,59);" />
    </g>
    <g transform="matrix(0.543963,0,0,0.612819,250.887,552.913)">
        <path
            d="M898.611,518.901L1097.84,621.002L1097.84,825.202L898.611,927.302L699.383,825.202L699.383,621.002L898.611,518.901Z"
            style="fill:rgb(59,59,59);" />
    </g>
    <g transform="matrix(0.543963,0,0,0.612819,-549.823,553.462)">
        <clipPath id="_clip4">
            <rect x="1010.77" y="518.901" width="90.271" height="408.401" />
        </clipPath>
        <g clip-path="url(#_clip4)">
            <path
                d="M898.611,518.901L1097.84,621.002L1097.84,825.202L898.611,927.302L699.383,825.202L699.383,621.002L898.611,518.901Z"
                style="fill:rgb(59,59,59);" />
        </g>
    </g>
    <g transform="matrix(0.543963,0,0,0.612819,586.674,358.807)">
        <path
            d="M898.611,518.901L1097.84,621.002L1097.84,825.202L898.611,927.302L699.383,825.202L699.383,621.002L898.611,518.901Z"
            style="fill:rgb(59,59,59);" />
    </g>
    <g transform="matrix(0.543963,0,0,0.612819,138.958,358.972)">
        <path
            d="M898.611,518.901L1097.84,621.002L1097.84,825.202L898.611,927.302L699.383,825.202L699.383,621.002L898.611,518.901Z"
            style="fill:rgb(59,59,59);" />
    </g>
    <g transform="matrix(0.543963,0,0,0.612819,-84.9,358.972)">
        <path
            d="M898.611,518.901L1097.84,621.002L1097.84,825.202L898.611,927.302L699.383,825.202L699.383,621.002L898.611,518.901Z"
            style="fill:rgb(59,59,59);" />
    </g>
    <g transform="matrix(0.543963,0,0,0.612819,922.46,165.63)">
        <path
            d="M898.611,518.901L1097.84,621.002L1097.84,825.202L898.611,927.302L699.383,825.202L699.383,621.002L898.611,518.901Z"
            style="fill:rgb(59,59,59);" />
    </g>
    <g transform="matrix(0.543963,0,0,0.612819,698.603,165.63)">
        <path
            d="M898.611,518.901L1097.84,621.002L1097.84,825.202L898.611,927.302L699.383,825.202L699.383,621.002L898.611,518.901Z"
            style="fill:rgb(59,59,59);" />
    </g>
    <g transform="matrix(0.543963,0,0,0.612819,27.3273,165.048)">
        <path
            d="M898.611,518.901L1097.84,621.002L1097.84,825.202L898.611,927.302L699.383,825.202L699.383,621.002L898.611,518.901Z"
            style="fill:rgb(59,59,59);" />
    </g>
    <g transform="matrix(0.543963,0,0,0.612819,1034.39,-28.4108)">
        <path
            d="M898.611,518.901L1097.84,621.002L1097.84,825.202L898.611,927.302L699.383,825.202L699.383,621.002L898.611,518.901Z"
            style="fill:rgb(59,59,59);" />
    </g>
    <g transform="matrix(0.543963,0,0,0.612819,810.532,-28.4108)">
        <path
            d="M898.611,518.901L1097.84,621.002L1097.84,825.202L898.611,927.302L699.383,825.202L699.383,621.002L898.611,518.901Z"
            style="fill:rgb(59,59,59);" />
    </g>
    <g transform="matrix(0.543963,0,0,0.612819,363.114,-28.4108)">
        <path
            d="M898.611,518.901L1097.84,621.002L1097.84,825.202L898.611,927.302L699.383,825.202L699.383,621.002L898.611,518.901Z"
            style="fill:rgb(59,59,59);" />
    </g>
    <g transform="matrix(0.543963,0,0,0.612819,139.256,-28.4108)">
        <path
            d="M898.611,518.901L1097.84,621.002L1097.84,825.202L898.611,927.302L699.383,825.202L699.383,621.002L898.611,518.901Z"
            style="fill:rgb(59,59,59);" />
    </g>
    <g transform="matrix(0.543963,0,0,0.612819,-84.6017,-29.7963)">
        <path
            d="M898.611,518.901L1097.84,621.002L1097.84,825.202L898.611,927.302L699.383,825.202L699.383,621.002L898.611,518.901Z"
            style="fill:rgb(59,59,59);" />
    </g>
    <g transform="matrix(0.543963,0,0,0.612819,-308.44,-29.7963)">
        <path
            d="M898.611,518.901L1097.84,621.002L1097.84,825.202L898.611,927.302L699.383,825.202L699.383,621.002L898.611,518.901Z"
            style="fill:rgb(59,59,59);" />
    </g>
    <g transform="matrix(0.543963,0,0,0.612819,-532.174,-29.7963)">
        <path
            d="M898.611,518.901L1097.84,621.002L1097.84,825.202L898.611,927.302L699.383,825.202L699.383,621.002L898.611,518.901Z"
            style="fill:rgb(59,59,59);" />
    </g>
    <g transform="matrix(0.543963,0,0,0.612819,1146.32,-221.9)">
        <path
            d="M898.611,518.901L1097.84,621.002L1097.84,825.202L898.611,927.302L699.383,825.202L699.383,621.002L898.611,518.901Z"
            style="fill:rgb(59,59,59);" />
    </g>
    <g transform="matrix(0.543963,0,0,0.612819,-195.873,-223.941)">
        <path
            d="M898.611,518.901L1097.84,621.002L1097.84,825.202L898.611,927.302L699.383,825.202L699.383,621.002L898.611,518.901Z"
            style="fill:rgb(59,59,59);" />
    </g>
    <g transform="matrix(0.543963,0,0,0.612819,1034.39,-416.503)">
        <clipPath id="_clip5">
            <rect x="687.546" y="679.65" width="435.206" height="258.278" />
        </clipPath>
        <g clip-path="url(#_clip5)">
            <path
                d="M898.611,518.901L1097.84,621.002L1097.84,825.202L898.611,927.302L699.383,825.202L699.383,621.002L898.611,518.901Z"
                style="fill:rgb(59,59,59);" />
        </g>
    </g>
    <g transform="matrix(0.543963,0,0,0.612819,373.418,-484.369)">
        <clipPath id="_clip6">
            <rect x="687.45" y="790.394" width="425.475" height="138.943" />
        </clipPath>
        <g clip-path="url(#_clip6)">
            <path
                d="M898.611,518.901L1097.84,621.002L1097.84,825.202L898.611,927.302L699.383,825.202L699.383,621.002L898.611,518.901Z"
                style="fill:rgb(59,59,59);" />
        </g>
    </g>
</svg>